<?xml version="1.0" encoding="UTF-8" standalone="no"?>
<!-- Created with Inkscape (http://www.inkscape.org/) -->

<svg
   xmlns:dc="http://purl.org/dc/elements/1.1/"
   xmlns:cc="http://creativecommons.org/ns#"
   xmlns:rdf="http://www.w3.org/1999/02/22-rdf-syntax-ns#"
   xmlns:svg="http://www.w3.org/2000/svg"
   xmlns="http://www.w3.org/2000/svg"
   xmlns:sodipodi="http://sodipodi.sourceforge.net/DTD/sodipodi-0.dtd"
   xmlns:inkscape="http://www.inkscape.org/namespaces/inkscape"
   width="16"
   height="16"
   viewBox="0 0 4.2333332 4.2333335"
   version="1.1"
   id="svg930"
   inkscape:version="0.92.4 5da689c313, 2019-01-14"
   sodipodi:docname="io.github.ImEditor-symbolic.svg">
  <defs
     id="defs924" />
  <sodipodi:namedview
     id="base"
     pagecolor="#ffffff"
     bordercolor="#666666"
     borderopacity="1.0"
     inkscape:pageopacity="0.0"
     inkscape:pageshadow="2"
     inkscape:zoom="19.458695"
     inkscape:cx="12.584203"
     inkscape:cy="8.5962801"
     inkscape:document-units="mm"
     inkscape:current-layer="layer1"
     showgrid="false"
     units="px"
     inkscape:window-width="1470"
     inkscape:window-height="800"
     inkscape:window-x="66"
     inkscape:window-y="27"
     inkscape:window-maximized="1" />
  <metadata
     id="metadata927">
    <rdf:RDF>
      <cc:Work
         rdf:about="">
        <dc:format>image/svg+xml</dc:format>
        <dc:type
           rdf:resource="http://purl.org/dc/dcmitype/StillImage" />
        <dc:title></dc:title>
      </cc:Work>
    </rdf:RDF>
  </metadata>
  <g
     inkscape:label="Calque 1"
     inkscape:groupmode="layer"
     id="layer1"
     transform="translate(0,-292.76665)">
    <g
       id="g956"
       transform="matrix(1.1882522,0,0,1.1882522,0.97186935,-55.902231)">
      <path
         id="path884"
         style="font-style:normal;font-variant:normal;font-weight:normal;font-stretch:normal;font-size:12.69999981px;line-height:1.25;font-family:Pacifico;-inkscape-font-specification:Pacifico;letter-spacing:0px;word-spacing:0px;fill:#bebebe;fill-opacity:1;stroke:none;stroke-width:0.03421102"
         d="m 0.10518552,294.51046 q 0.0426953,0 0.0722537,0.0214 0.0295584,0.0197 0.0295584,0.0493 0,0.0526 -0.0328429,0.0854 -0.0328423,0.0312 -0.09360134,0.0312 -0.09524343,0 -0.14450725,0.002 -0.0032815,0.0197 -0.02955838,0.17735 -0.02955838,0.17571 -0.03612685,0.21512 l -0.0344849,0.21512 q -0.0361269,0.24139 -0.0574742,0.40397 0.0344849,-0.002 0.0936013,-0.002 0.08703281,0 0.11823328,0.023 0.03120035,0.023 0.03120035,0.069 0,0.0427 -0.03448488,0.0723 -0.03284231,0.0295 -0.09360134,0.0295 -0.0410533,0 -0.12972818,-0.003 -0.0821064,-0.004 -0.10838047,-0.004 -0.10345415,0 -0.22661381,0.0181 -0.0541903,0.008 -0.0771803,0.008 -0.0361268,0 -0.0607587,-0.0197 -0.0246295,-0.0197 -0.0246295,-0.0575 0,-0.0591 0.0525465,-0.0919 0.0525477,-0.0328 0.14779154,-0.0345 l 0.0771801,-0.002 0.004928,-0.0361 q 0.0394108,-0.26275 0.0574742,-0.37113 l 0.0361268,-0.21512 q 0.0328423,-0.19048 0.0591168,-0.39247 l -0.13793885,0.002 q -0.0591168,0 -0.0821064,-0.0181 -0.021348,-0.0197 -0.021348,-0.0542 0,-0.11166 0.16092859,-0.11987 0.075538,-0.004 0.18391845,-0.004 z"
         inkscape:connector-curvature="0" />
      <path
         id="path888"
         style="font-style:normal;font-variant:normal;font-weight:normal;font-stretch:normal;font-size:12.69999981px;line-height:1.25;font-family:Pacifico;-inkscape-font-specification:Pacifico;letter-spacing:0px;word-spacing:0px;fill:#bebebe;fill-opacity:1;stroke:none;stroke-width:0.03421102"
         d="m 2.5671986,295.59426 q 0.024632,-0.01 0.041053,-0.01 0.026274,0 0.039411,0.0197 0.013137,0.0197 0.013137,0.0509 0,0.0493 -0.024632,0.0838 -0.02299,0.0345 -0.080464,0.0624 -0.096886,0.046 -0.2512457,0.0739 -0.1543602,0.0263 -0.3037939,0.0263 -0.2069082,0 -0.3464891,-0.046 -0.139581,-0.0476 -0.2085504,-0.12973 -0.067327,-0.0821 -0.067327,-0.18556 0,-0.14122 0.090317,-0.23975 0.091959,-0.10017 0.2693091,-0.1445 -0.096886,-0.0279 -0.1494337,-0.0985 -0.050906,-0.0706 -0.050906,-0.15765 0,-0.11823 0.073896,-0.20855 0.075538,-0.092 0.2019819,-0.14122 0.1264439,-0.0493 0.2775197,-0.0493 0.203624,0 0.305436,0.0887 0.101812,0.087 0.101812,0.22662 0,0.0969 -0.036127,0.15764 -0.034485,0.0591 -0.1001698,0.0591 -0.04598,0 -0.072254,-0.0197 -0.026274,-0.0214 -0.026274,-0.0624 0,-0.0279 0.00821,-0.0608 0.00821,-0.0542 0.00821,-0.0739 0,-0.0591 -0.044337,-0.0952 -0.044337,-0.0378 -0.1477916,-0.0378 -0.139581,0 -0.2233296,0.0591 -0.083749,0.0591 -0.083749,0.15929 0,0.0772 0.062401,0.12808 0.064043,0.0493 0.2069083,0.0542 0.036127,0.002 0.050906,0.0164 0.014779,0.0148 0.014779,0.0493 0,0.10838 -0.098528,0.11002 -0.1362967,0.004 -0.2266138,0.0378 -0.088675,0.0345 -0.1297281,0.0887 -0.039411,0.0526 -0.039411,0.1133 0,0.10181 0.095244,0.15436 0.095244,0.0509 0.3021517,0.0509 0.1362968,0 0.2873726,-0.0312 0.152718,-0.0328 0.2610985,-0.0788 z"
         inkscape:connector-curvature="0" />
      <path
         id="path886"
         style="font-style:normal;font-variant:normal;font-weight:normal;font-stretch:normal;font-size:12.69999981px;line-height:1.25;font-family:Pacifico;-inkscape-font-specification:Pacifico;letter-spacing:0px;word-spacing:0px;fill:#bebebe;fill-opacity:1;stroke:none;stroke-width:0.03421102"
         d="m 0.30082986,295.90134 q -0.062401,0 -0.088675,-0.0657 -0.0246319,-0.0657 -0.0246319,-0.21019 0,-0.21348 0.0607588,-0.40561 0.0147789,-0.0476 0.0476218,-0.069 0.0344849,-0.023 0.0952435,-0.023 0.0328429,0 0.0459798,0.008 0.0131369,0.008 0.0131369,0.0312 0,0.0263 -0.0246319,0.11824 -0.0164214,0.0657 -0.0262738,0.11495 -0.009853,0.0476 -0.0164215,0.11987 0.0443373,-0.12808 0.10509624,-0.21676 0.0624009,-0.0887 0.12644395,-0.13137 0.0656852,-0.0443 0.12315966,-0.0443 0.0574742,0 0.0804643,0.0263 0.0246319,0.0263 0.0246319,0.0805 0,0.0526 -0.0312003,0.19049 -0.0131369,0.0591 -0.0180634,0.0887 0.0821065,-0.20198 0.1822763,-0.29394 0.10016989,-0.092 0.18720279,-0.092 0.1067383,0 0.1067383,0.10674 0,0.0641 -0.036127,0.23154 -0.0312,0.14287 -0.0312,0.18885 0,0.0657 0.047622,0.0657 0.032842,0 0.07718,-0.0394 0.04598,-0.041 0.1215175,-0.13137 0.019705,-0.023 0.044337,-0.023 0.021348,0 0.032843,0.0197 0.013137,0.0197 0.013137,0.0542 0,0.0657 -0.0312,0.10182 -0.070611,0.087 -0.1527179,0.14286 -0.080464,0.0559 -0.1839185,0.0559 -0.083749,0 -0.1264439,-0.0476 -0.042695,-0.0493 -0.042695,-0.14122 0,-0.046 0.02299,-0.16421 0.021348,-0.10345 0.021348,-0.14287 0,-0.0263 -0.018063,-0.0263 -0.021348,0 -0.0607588,0.0559 -0.0394108,0.0542 -0.0788222,0.1445 -0.0394108,0.0903 -0.064043,0.19049 -0.0180634,0.0788 -0.0426953,0.10509 -0.0229899,0.0263 -0.0755379,0.0263 -0.0541903,0 -0.0821064,-0.0509 -0.0262738,-0.0526 -0.0262738,-0.12644 0,-0.0624 0.0164214,-0.18063 0.0131369,-0.1051 0.0131369,-0.13795 0,-0.0263 -0.0180634,-0.0263 -0.0246319,0 -0.0624009,0.0591 -0.0377688,0.0591 -0.0738958,0.15107 -0.0344849,0.092 -0.0558322,0.18064 -0.0180634,0.0772 -0.0426953,0.10509 -0.0229899,0.0263 -0.0738958,0.0263 z"
         inkscape:connector-curvature="0" />
    </g>
  </g>
</svg>
