<?xml version="1.0" encoding="UTF-8" standalone="no"?>
<!-- Created with Inkscape (http://www.inkscape.org/) -->

<svg
   xmlns:dc="http://purl.org/dc/elements/1.1/"
   xmlns:cc="http://creativecommons.org/ns#"
   xmlns:rdf="http://www.w3.org/1999/02/22-rdf-syntax-ns#"
   xmlns:svg="http://www.w3.org/2000/svg"
   xmlns="http://www.w3.org/2000/svg"
   xmlns:sodipodi="http://sodipodi.sourceforge.net/DTD/sodipodi-0.dtd"
   xmlns:inkscape="http://www.inkscape.org/namespaces/inkscape"
   width="128"
   height="128"
   viewBox="0 0 33.866666 33.866666"
   version="1.1"
   id="svg43"
   inkscape:version="0.92.4 5da689c313, 2019-01-14"
   sodipodi:docname="io.github.ImEditor.svg">
  <defs
     id="defs37" />
  <sodipodi:namedview
     id="base"
     pagecolor="#ffffff"
     bordercolor="#666666"
     borderopacity="1.0"
     inkscape:pageopacity="0.0"
     inkscape:pageshadow="2"
     inkscape:zoom="2.8976134"
     inkscape:cx="50.530925"
     inkscape:cy="61.799427"
     inkscape:document-units="mm"
     inkscape:current-layer="text68"
     showgrid="false"
     units="px"
     showborder="false"
     inkscape:window-width="1470"
     inkscape:window-height="800"
     inkscape:window-x="66"
     inkscape:window-y="27"
     inkscape:window-maximized="1" />
  <metadata
     id="metadata40">
    <rdf:RDF>
      <cc:Work
         rdf:about="">
        <dc:format>image/svg+xml</dc:format>
        <dc:type
           rdf:resource="http://purl.org/dc/dcmitype/StillImage" />
        <dc:title />
      </cc:Work>
    </rdf:RDF>
  </metadata>
  <g
     inkscape:label="Calque 1"
     inkscape:groupmode="layer"
     id="layer1"
     transform="translate(0,-263.13334)">
    <rect
       style="fill:#f1513c;fill-opacity:1;stroke:none;stroke-width:0.11605065;stroke-miterlimit:4;stroke-dasharray:none;stroke-opacity:1"
       id="rect45"
       width="33.866665"
       height="33.866665"
       x="8.9009603e-07"
       y="263.13333" />
    <g
       aria-label="ImE"
       style="font-style:normal;font-weight:normal;font-size:10.58333302px;line-height:1.25;font-family:sans-serif;letter-spacing:0px;word-spacing:0px;fill:#000000;fill-opacity:1;stroke:none;stroke-width:0.26458332"
       id="text68">
      <path
         d="m 10.699309,274.04124 q 0.366889,0 0.620889,0.18344 0.254,0.16933 0.254,0.42333 0,0.45156 -0.282222,0.73378 -0.282223,0.26811 -0.804334,0.26811 -0.8184441,0 -1.2417775,0.0141 -0.028222,0.16934 -0.254,1.524 -0.2539999,1.50989 -0.3104444,1.84856 l -0.2963333,1.84855 q -0.3104445,2.07434 -0.4938889,3.47134 0.2963333,-0.0141 0.8043333,-0.0141 0.7478889,0 1.016,0.19755 0.2681111,0.19756 0.2681111,0.59267 0,0.36689 -0.2963333,0.62089 -0.2822222,0.254 -0.8043333,0.254 -0.3527778,0 -1.1147778,-0.0282 -0.7055555,-0.0282 -0.9313333,-0.0282 -0.889,0 -1.9473333,0.15522 -0.4656666,0.0706 -0.6632222,0.0706 -0.3104444,0 -0.5221111,-0.16933 -0.2116666,-0.16934 -0.2116666,-0.49389 0,-0.508 0.4515555,-0.79022 0.4515556,-0.28223 1.27,-0.29634 l 0.6632222,-0.0141 0.042333,-0.31044 q 0.3386667,-2.25778 0.4938889,-3.18911 l 0.3104444,-1.84856 q 0.2822222,-1.63689 0.508,-3.37255 l -1.1853333,0.0141 q -0.508,0 -0.7055555,-0.15523 -0.1834445,-0.16933 -0.1834445,-0.46566 0,-0.95956 1.3828889,-1.03011 0.6491111,-0.0282 1.5804444,-0.0282 z"
         style="font-style:normal;font-variant:normal;font-weight:normal;font-stretch:normal;font-size:14.11111069px;line-height:1.25;font-family:Pacifico;-inkscape-font-specification:Pacifico;letter-spacing:-1.05833328px;fill:#ffffff"
         id="path12" />
      <path
         d="m 11.322182,285.99335 q -0.536222,0 -0.762,-0.56445 -0.211666,-0.56444 -0.211666,-1.80622 0,-1.83444 0.522111,-3.48544 0.127,-0.40923 0.409222,-0.59267 0.296333,-0.19756 0.818444,-0.19756 0.282223,0 0.395111,0.0706 0.112889,0.0705 0.112889,0.26811 0,0.22578 -0.211666,1.016 -0.141111,0.56444 -0.225778,0.98778 -0.08467,0.40922 -0.141111,1.03011 0.381,-1.10067 0.903111,-1.86267 0.536222,-0.762 1.086555,-1.12889 0.564445,-0.381 1.058334,-0.381 0.493889,0 0.691444,0.22578 0.211667,0.22578 0.211667,0.69145 0,0.45155 -0.268111,1.63688 -0.112889,0.508 -0.155223,0.762 0.465667,-1.18533 1.030112,-1.93322 0.578555,-0.74789 1.128888,-1.05833 0.550334,-0.32456 1.016,-0.32456 0.451556,0 0.677334,0.23989 0.239889,0.22578 0.239889,0.67734 0,0.36688 -0.155223,1.38288 -0.141111,0.86078 -0.225777,1.63689 -0.08467,0.762 -0.08467,1.70745 0,0.53622 -0.225778,0.77611 -0.211667,0.22578 -0.705555,0.22578 -0.465667,0 -0.677334,-0.23989 -0.211666,-0.23989 -0.211666,-0.71967 0,-0.56444 0.197555,-1.86267 0.169333,-1.12888 0.169333,-1.43933 0,-0.22578 -0.155222,-0.22578 -0.183444,0 -0.522111,0.47978 -0.338666,0.46567 -0.677333,1.24178 -0.338667,0.77611 -0.550333,1.63689 -0.155223,0.67733 -0.366889,0.90311 -0.197556,0.22578 -0.649111,0.22578 -0.465667,0 -0.705556,-0.43745 -0.225778,-0.45155 -0.225778,-1.08655 0,-0.53623 0.141111,-1.55223 0.112889,-0.90311 0.112889,-1.18533 0,-0.22578 -0.155222,-0.22578 -0.211667,0 -0.536222,0.508 -0.324556,0.508 -0.635,1.29823 -0.296333,0.79022 -0.479778,1.55222 -0.155222,0.66322 -0.366889,0.90311 -0.197555,0.22578 -0.635,0.22578 z"
         style="font-style:normal;font-variant:normal;font-weight:normal;font-stretch:normal;font-size:14.11111069px;line-height:1.25;font-family:Pacifico;-inkscape-font-specification:Pacifico;letter-spacing:-1.05833328px;fill:#ffffff"
         id="path14" />
      <path
         d="m 29.573802,283.35457 q 0.211667,-0.0847 0.352778,-0.0847 0.225777,0 0.338666,0.16934 0.112889,0.16933 0.112889,0.43744 0,0.42333 -0.211666,0.71967 -0.197556,0.29633 -0.691445,0.53622 -0.832555,0.39511 -2.159,0.635 -1.326444,0.22578 -2.610555,0.22578 -1.778,0 -2.977445,-0.39512 -1.199444,-0.40922 -1.792111,-1.11477 -0.578555,-0.70556 -0.578555,-1.59456 0,-1.21355 0.776111,-2.06022 0.790222,-0.86078 2.314222,-1.24178 -0.832556,-0.23989 -1.284111,-0.84666 -0.437445,-0.60678 -0.437445,-1.35467 0,-1.016 0.635,-1.79211 0.649112,-0.79022 1.735667,-1.21356 1.086556,-0.42333 2.384778,-0.42333 1.749777,0 2.624666,0.762 0.874889,0.74789 0.874889,1.94733 0,0.83256 -0.310444,1.35467 -0.296334,0.508 -0.860778,0.508 -0.395111,0 -0.620889,-0.16933 -0.225778,-0.18345 -0.225778,-0.53623 0,-0.23989 0.07056,-0.52211 0.07055,-0.46566 0.07055,-0.635 0,-0.508 -0.380999,-0.81844 -0.381,-0.32456 -1.27,-0.32456 -1.199445,0 -1.919112,0.508 -0.719666,0.508 -0.719666,1.36878 0,0.66322 0.536222,1.10067 0.550333,0.42333 1.778,0.46566 0.310444,0.0141 0.437444,0.14111 0.127,0.127 0.127,0.42334 0,0.93133 -0.846666,0.94544 -1.171222,0.0282 -1.947333,0.32456 -0.762,0.29633 -1.114778,0.762 -0.338667,0.45155 -0.338667,0.97366 0,0.87489 0.818445,1.32645 0.818444,0.43744 2.596444,0.43744 1.171222,0 2.469444,-0.26811 1.312334,-0.28222 2.243667,-0.67733 z"
         style="font-style:normal;font-variant:normal;font-weight:normal;font-stretch:normal;font-size:14.11111069px;line-height:1.25;font-family:Pacifico;-inkscape-font-specification:Pacifico;letter-spacing:-1.05833328px;fill:#333333;fill-opacity:1"
         id="path16" />
    </g>
  </g>
</svg>
